<svg xmlns="http://www.w3.org/2000/svg" aria-hidden="true" style="position:absolute;width:0;height:0;overflow:hidden">
    <defs>
        <symbol id="icon-inst" viewBox="0 0 32 32">
            <path d="M8.933 1.368c-2.256 0.117-4.247 1.156-5.622 2.743l-0.008 0.010c-0.856 0.988-1.48 2.2-1.772 3.536l-0.010 0.053c-0.175 0.845-0.193 1.787-0.173 8.823 0.017 6.213 0.028 7.011 0.108 7.436 0.357 1.916 1.252 3.504 2.661 4.724 0.897 0.786 1.986 1.375 3.188 1.685l0.054 0.012c0.947 0.252 0.875 0.249 8.64 0.249s7.693 0.003 8.64-0.249c1.256-0.323 2.346-0.911 3.252-1.705l-0.009 0.008c1.452-1.257 2.376-2.945 2.685-4.907 0.057-0.363 0.072-1.915 0.072-7.787s-0.015-7.424-0.072-7.787c-0.419-2.656-2.020-4.869-4.355-6.020-0.867-0.444-1.882-0.734-2.957-0.805l-0.023-0.001c-0.564-0.044-13.573-0.061-14.3-0.019zM23.669 4.085c1.053 0.217 1.893 0.647 2.644 1.355 0.784 0.739 1.247 1.529 1.564 2.667 0.091 0.327 0.096 0.777 0.096 7.893s-0.005 7.567-0.096 7.893c-0.317 1.137-0.78 1.928-1.564 2.667-0.677 0.639-1.3 0.984-2.34 1.297-0.371 0.112-0.421 0.112-7.787 0.129-8.092 0.019-7.736 0.029-8.633-0.284-1.537-0.563-2.725-1.759-3.263-3.265l-0.012-0.038c-0.288-0.844-0.279-0.559-0.279-8.4 0-7.897-0.012-7.56 0.297-8.447 0.564-1.546 1.773-2.739 3.292-3.27l0.038-0.011c0.82-0.272 0.536-0.263 8.336-0.268 6.471-0.004 7.341 0.005 7.707 0.081zM22.853 7.437c-0.28 0.103-0.693 0.537-0.768 0.807-0.149 0.54-0.041 0.965 0.341 1.34 0.329 0.32 0.593 0.415 1.045 0.375 0.691-0.063 1.165-0.588 1.165-1.292 0-0.005 0-0.011 0-0.016 0-0.505-0.285-0.943-0.702-1.163l-0.007-0.003c-0.232-0.12-0.808-0.145-1.075-0.047zM15.547 9.311c-1.204 0.115-2.428 0.56-3.353 1.22-2.868 2.047-3.641 6.089-1.724 9.003 1.68 2.549 4.767 3.652 7.637 2.728 2.313-0.745 4.048-2.741 4.512-5.195 0.099-0.519 0.085-1.748-0.025-2.313-0.277-1.415-0.856-2.516-1.844-3.503-0.907-0.927-2.090-1.58-3.416-1.826l-0.040-0.006c-0.449-0.085-1.379-0.143-1.747-0.108zM17.307 12.127c0.609 0.208 1.113 0.524 1.577 0.989 0.465 0.465 0.781 0.969 0.988 1.577 0.192 0.565 0.24 1.52 0.105 2.125-0.289 1.192-1.072 2.161-2.114 2.695l-0.023 0.011c-0.489 0.263-1.070 0.417-1.686 0.417-0.091 0-0.181-0.003-0.271-0.010l0.012 0.001c-1.771-0.080-3.152-1.155-3.689-2.867-0.107-0.339-0.125-0.511-0.125-1.145 0-0.639 0.017-0.8 0.124-1.116 0.368-1.097 1.041-1.915 1.979-2.399 0.721-0.373 1.117-0.461 1.977-0.441 0.617 0.015 0.781 0.039 1.147 0.163z"></path>
        </symbol>
        <symbol id="icon-facebook" viewBox="0 0 32 32">
            <path stroke-linecap="round" stroke-linejoin="round" stroke-width="2.667" d="M24 2.667h-4a6.67 6.67 0 0 0-6.667 6.667v4h-4v5.333h4v10.667h5.333V18.667h4l1.333-5.333h-5.333v-4A1.334 1.334 0 0 1 20 8h4V2.667z"/>
        </symbol>
        <symbol id="icon-twitter" viewBox="0 0 32 32">
            <path stroke-linecap="round" stroke-linejoin="round" stroke-width="2.667" d="M30.667 4.013a14.542 14.542 0 0 1-4.187 2.04 5.975 5.975 0 0 0-6.637-1.661A5.979 5.979 0 0 0 16 10.053v1.333a14.211 14.211 0 0 1-12-6.04s-5.333 12 6.667 17.333a15.519 15.519 0 0 1-9.333 2.667c12 6.667 26.667 0 26.667-15.333a5.966 5.966 0 0 0-.107-1.107 10.288 10.288 0 0 0 2.773-4.893z"/>
        </symbol>
        <symbol id="icon-time" viewBox="0 0 26 32">
            <path d="M23.664 2.689h1.614a.531.531 0 0 0 .538-.538V1.075a.53.53 0 0 0-.538-.538H.538A.53.53 0 0 0 0 1.075v1.076a.53.53 0 0 0 .538.538h1.613c0 6.219 2.975 10.723 6.269 12.908-3.294 2.185-6.269 6.689-6.269 12.908H.538a.53.53 0 0 0-.538.538v1.076c0 .302.235.538.538.538h24.74a.531.531 0 0 0 .538-.538v-1.076a.531.531 0 0 0-.538-.538h-1.614c0-6.219-2.975-10.723-6.269-12.908 3.294-2.185 6.269-6.689 6.269-12.908zm-2.151 0c0 2.454-.555 4.622-1.429 6.454H5.731c-.874-1.832-1.429-4-1.429-6.454h17.21zm-.958 20.437H5.261c1.244-3.244 3.479-5.546 5.714-6.454h3.866c2.235.908 4.471 3.21 5.714 6.454z"/>
        </symbol>
        <symbol id="icon-heart" viewBox="0 0 34 32">
            <path d="M17.067 30.172c.305 0 .61-.114.838-.343l11.867-11.428c.171-.171 4.362-4 4.362-8.571 0-5.581-3.41-8.914-9.105-8.914-3.333 0-6.457 2.629-7.962 4.114C15.562 3.544 12.438.916 9.105.916 3.41.916 0 4.249 0 9.83c0 4.571 4.191 8.4 4.343 8.533L16.229 29.83c.229.229.533.343.838.343z"/>
        </symbol>
        <symbol id="icon-vawe" viewBox="0 0 41 32">
            <path d="m21.673 12.898 2.674 1.245 3.98-1.184v-2.775c0-4.714-3.98-8.49-8.735-8.49-4.735 0-8.735 3.755-8.735 8.429v12.653c0 1.163-.939 2.082-2.082 2.082s-2.082-.918-2.082-2.082v-5.347H-.001v5.429a8.753 8.753 0 0 0 8.755 8.755c4.796 0 8.755-3.857 8.755-8.633V10.49c0-1.143.939-2.082 2.082-2.082s2.082.939 2.082 2.082v2.408zm10.817 4.531v5.612c0 1.143-.939 2.061-2.082 2.061s-2.082-.918-2.082-2.061v-5.51l-3.98 1.184-2.674-1.245v5.469c0 4.796 3.939 8.674 8.755 8.674a8.753 8.753 0 0 0 8.755-8.755v-5.429h-6.694z"/>
        </symbol>
        <symbol id="icon-arrow" viewBox="0 0 21 32">
            <path d="M19.042 18.067 1.832.857a1.003 1.003 0 0 0-.756-.319C.942.538.79.572.673.622a1.079 1.079 0 0 0-.672.992v25.277c0 .437.269.824.672.992.118.05.269.084.403.084.286 0 .555-.118.756-.319l5.244-5.244 3.21 7.597a1.08 1.08 0 0 0 1.412.571l2.975-1.261a1.08 1.08 0 0 0 .571-1.412l-3.378-8h6.42c.437 0 .824-.269.992-.672a1.038 1.038 0 0 0-.235-1.16z"/>
        </symbol>
    </defs>
</svg>